<mxfile host="app.diagrams.net" modified="2021-03-04T16:27:47.634Z" agent="5.0 (Windows NT 10.0; Win64; x64) AppleWebKit/537.36 (KHTML, like Gecko) Chrome/88.0.4324.190 Safari/537.36" etag="wBekls1Ps1XigEPNOBgz" version="14.4.4" type="github">
  <diagram id="9lH3KSAO8hJ8v4-R7q0s" name="Page-1">
    <mxGraphModel dx="868" dy="425" grid="1" gridSize="10" guides="1" tooltips="1" connect="1" arrows="1" fold="1" page="1" pageScale="1" pageWidth="850" pageHeight="1100" math="0" shadow="0">
      <root>
        <mxCell id="0" />
        <mxCell id="1" parent="0" />
        <mxCell id="-CfjY7zQHmEIf9l4qmC3-1" value="" style="rounded=0;whiteSpace=wrap;html=1;" vertex="1" parent="1">
          <mxGeometry x="160" y="120" width="80" height="190" as="geometry" />
        </mxCell>
        <mxCell id="-CfjY7zQHmEIf9l4qmC3-2" value="" style="rounded=0;whiteSpace=wrap;html=1;" vertex="1" parent="1">
          <mxGeometry x="540" y="120" width="80" height="190" as="geometry" />
        </mxCell>
        <mxCell id="-CfjY7zQHmEIf9l4qmC3-3" value="" style="rounded=0;whiteSpace=wrap;html=1;" vertex="1" parent="1">
          <mxGeometry x="340" y="120" width="80" height="190" as="geometry" />
        </mxCell>
        <mxCell id="-CfjY7zQHmEIf9l4qmC3-4" value="&amp;nbsp;WebHook" style="text;html=1;strokeColor=none;fillColor=none;align=center;verticalAlign=middle;whiteSpace=wrap;rounded=0;" vertex="1" parent="1">
          <mxGeometry x="360" y="80" width="40" height="20" as="geometry" />
        </mxCell>
        <mxCell id="-CfjY7zQHmEIf9l4qmC3-5" value="SFM" style="text;html=1;strokeColor=none;fillColor=none;align=center;verticalAlign=middle;whiteSpace=wrap;rounded=0;" vertex="1" parent="1">
          <mxGeometry x="560" y="80" width="40" height="20" as="geometry" />
        </mxCell>
        <mxCell id="-CfjY7zQHmEIf9l4qmC3-6" value="CBS" style="text;html=1;strokeColor=none;fillColor=none;align=center;verticalAlign=middle;whiteSpace=wrap;rounded=0;" vertex="1" parent="1">
          <mxGeometry x="180" y="80" width="40" height="20" as="geometry" />
        </mxCell>
        <mxCell id="-CfjY7zQHmEIf9l4qmC3-7" value="Actor" style="shape=umlActor;verticalLabelPosition=bottom;verticalAlign=top;html=1;outlineConnect=0;" vertex="1" parent="1">
          <mxGeometry x="30" y="150" width="30" height="60" as="geometry" />
        </mxCell>
        <mxCell id="-CfjY7zQHmEIf9l4qmC3-8" value="" style="endArrow=classic;html=1;" edge="1" parent="1" source="-CfjY7zQHmEIf9l4qmC3-7">
          <mxGeometry relative="1" as="geometry">
            <mxPoint x="60" y="180" as="sourcePoint" />
            <mxPoint x="160" y="180" as="targetPoint" />
          </mxGeometry>
        </mxCell>
        <mxCell id="-CfjY7zQHmEIf9l4qmC3-9" value="close deposit" style="edgeLabel;resizable=0;html=1;align=center;verticalAlign=middle;" connectable="0" vertex="1" parent="-CfjY7zQHmEIf9l4qmC3-8">
          <mxGeometry relative="1" as="geometry" />
        </mxCell>
        <mxCell id="-CfjY7zQHmEIf9l4qmC3-10" value="" style="endArrow=classic;html=1;" edge="1" parent="1">
          <mxGeometry relative="1" as="geometry">
            <mxPoint x="240" y="179.5" as="sourcePoint" />
            <mxPoint x="340" y="179.5" as="targetPoint" />
          </mxGeometry>
        </mxCell>
        <mxCell id="-CfjY7zQHmEIf9l4qmC3-11" value="close deposit" style="edgeLabel;resizable=0;html=1;align=center;verticalAlign=middle;" connectable="0" vertex="1" parent="-CfjY7zQHmEIf9l4qmC3-10">
          <mxGeometry relative="1" as="geometry" />
        </mxCell>
        <mxCell id="-CfjY7zQHmEIf9l4qmC3-12" value="" style="rounded=0;whiteSpace=wrap;html=1;" vertex="1" parent="1">
          <mxGeometry x="720" y="120" width="80" height="190" as="geometry" />
        </mxCell>
        <mxCell id="-CfjY7zQHmEIf9l4qmC3-13" value="Instrument Vault" style="text;html=1;strokeColor=none;fillColor=none;align=center;verticalAlign=middle;whiteSpace=wrap;rounded=0;" vertex="1" parent="1">
          <mxGeometry x="720" y="80" width="40" height="20" as="geometry" />
        </mxCell>
        <mxCell id="-CfjY7zQHmEIf9l4qmC3-14" value="" style="outlineConnect=0;dashed=0;verticalLabelPosition=bottom;verticalAlign=top;align=center;html=1;shape=mxgraph.aws3.queue;fillColor=#D9A741;gradientColor=none;" vertex="1" parent="1">
          <mxGeometry x="351" y="156" width="58" height="48" as="geometry" />
        </mxCell>
        <mxCell id="-CfjY7zQHmEIf9l4qmC3-15" value="events in Queue" style="text;html=1;strokeColor=none;fillColor=none;align=center;verticalAlign=middle;whiteSpace=wrap;rounded=0;" vertex="1" parent="1">
          <mxGeometry x="360" y="220" width="40" height="20" as="geometry" />
        </mxCell>
        <mxCell id="-CfjY7zQHmEIf9l4qmC3-16" value="" style="endArrow=classic;html=1;exitX=1;exitY=0.574;exitDx=0;exitDy=0;exitPerimeter=0;" edge="1" parent="1" source="-CfjY7zQHmEIf9l4qmC3-3">
          <mxGeometry relative="1" as="geometry">
            <mxPoint x="420" y="180" as="sourcePoint" />
            <mxPoint x="541" y="229" as="targetPoint" />
            <Array as="points" />
          </mxGeometry>
        </mxCell>
        <mxCell id="-CfjY7zQHmEIf9l4qmC3-17" value="Process each event" style="edgeLabel;resizable=0;html=1;align=center;verticalAlign=middle;" connectable="0" vertex="1" parent="-CfjY7zQHmEIf9l4qmC3-16">
          <mxGeometry relative="1" as="geometry">
            <mxPoint y="-9.029999999999998" as="offset" />
          </mxGeometry>
        </mxCell>
        <mxCell id="-CfjY7zQHmEIf9l4qmC3-18" value="" style="endArrow=classic;html=1;" edge="1" parent="1">
          <mxGeometry relative="1" as="geometry">
            <mxPoint x="340" y="210" as="sourcePoint" />
            <mxPoint x="240" y="210" as="targetPoint" />
          </mxGeometry>
        </mxCell>
        <mxCell id="-CfjY7zQHmEIf9l4qmC3-19" value="acknowledge" style="edgeLabel;resizable=0;html=1;align=center;verticalAlign=middle;" connectable="0" vertex="1" parent="-CfjY7zQHmEIf9l4qmC3-18">
          <mxGeometry relative="1" as="geometry" />
        </mxCell>
        <mxCell id="-CfjY7zQHmEIf9l4qmC3-20" value="" style="endArrow=classic;html=1;" edge="1" parent="1">
          <mxGeometry relative="1" as="geometry">
            <mxPoint x="620" y="240" as="sourcePoint" />
            <mxPoint x="720" y="240" as="targetPoint" />
          </mxGeometry>
        </mxCell>
        <mxCell id="-CfjY7zQHmEIf9l4qmC3-21" value="Add instrument" style="edgeLabel;resizable=0;html=1;align=center;verticalAlign=middle;" connectable="0" vertex="1" parent="-CfjY7zQHmEIf9l4qmC3-20">
          <mxGeometry relative="1" as="geometry" />
        </mxCell>
        <mxCell id="-CfjY7zQHmEIf9l4qmC3-22" value="" style="endArrow=classic;html=1;" edge="1" parent="1">
          <mxGeometry relative="1" as="geometry">
            <mxPoint x="720" y="270" as="sourcePoint" />
            <mxPoint x="620" y="270" as="targetPoint" />
          </mxGeometry>
        </mxCell>
        <mxCell id="-CfjY7zQHmEIf9l4qmC3-23" value="Respond to SFM" style="edgeLabel;resizable=0;html=1;align=center;verticalAlign=middle;" connectable="0" vertex="1" parent="-CfjY7zQHmEIf9l4qmC3-22">
          <mxGeometry relative="1" as="geometry" />
        </mxCell>
        <mxCell id="-CfjY7zQHmEIf9l4qmC3-24" value="" style="shape=partialRectangle;whiteSpace=wrap;html=1;bottom=0;right=0;fillColor=none;" vertex="1" parent="1">
          <mxGeometry x="300" y="60" width="530" height="280" as="geometry" />
        </mxCell>
        <mxCell id="-CfjY7zQHmEIf9l4qmC3-25" value="" style="shape=partialRectangle;whiteSpace=wrap;html=1;top=0;left=0;fillColor=none;" vertex="1" parent="1">
          <mxGeometry x="300" y="60" width="530" height="280" as="geometry" />
        </mxCell>
        <mxCell id="-CfjY7zQHmEIf9l4qmC3-26" value="Mobiquity Pay platform" style="text;html=1;strokeColor=none;fillColor=none;align=center;verticalAlign=middle;whiteSpace=wrap;rounded=0;" vertex="1" parent="1">
          <mxGeometry x="471" y="30" width="149" height="20" as="geometry" />
        </mxCell>
        <mxCell id="-CfjY7zQHmEIf9l4qmC3-27" value="" style="shape=partialRectangle;whiteSpace=wrap;html=1;top=0;left=0;fillColor=none;" vertex="1" parent="1">
          <mxGeometry x="300" y="60" width="530" height="280" as="geometry" />
        </mxCell>
      </root>
    </mxGraphModel>
  </diagram>
</mxfile>
